<svg xmlns="http://www.w3.org/2000/svg" xmlns:xlink="http://www.w3.org/1999/xlink" version="1.1" id="Layer_1" x="0px" y="0px" viewBox="0 0 256 256" xml:space="preserve" width="512" height="512"> <style type="text/css"> .st0{fill:#E9E9EA;} .st1{fill:#55ACD5;} .st2{fill:#F9D0B4;} .st3{fill:#FC7783;} .st4{fill:#EA4647;} .st5{fill:#6DCC6D;} .st6{fill:#FFCD29;} .st7{fill:#231F20;} </style> <g id="Layer_17"> <path class="st0" d="M225.8,174.6c-1.1-1.1-2.8-1.1-3.8,0l-49.6,49.6c-1.1,1.1-1.1,2.8,0,3.8l8.8,8.8l53.4-53.4L225.8,174.6z"/> <path class="st1" d="M250.7,190.3l-8-8c-1.9-1.9-5.1-1.9-7,0L180.9,237c-1.9,1.9-1.9,5.1,0,7l8,8c1.9,1.9,5.1,1.9,7,0l54.8-54.8 C252.7,195.3,252.7,192.2,250.7,190.3C250.7,190.3,250.7,190.3,250.7,190.3z"/> <path class="st2" d="M203.9,163.5c-6.1-6.1-7.9-11.7-10.3-15.9c-1.7-3.3-3.9-6.4-6.6-9l-30.2-30.2c-3.3-3.3-8.6-3.3-11.8,0 s-3.3,8.6,0,11.8c-3.3-3.3-8.6-3.3-11.8,0s-3.3,8.6,0,11.8c-3.3-3.3-8.6-3.3-11.8,0s-3.3,8.6,0,11.8l-24.3-24.3 c-3.3-3.2-8.5-3.2-11.8,0c-3.2,3.3-3.2,8.5,0,11.8l38.5,38.6c-3.6-3.6-9.5-3.6-13.2,0s-3.6,9.5,0,13.2l0,0l8.2,8.2 c6.2,6.2,14.1,10.3,22.6,11.9c7,1.9,15.4,0.5,26.3,10.6l7.6,7.4l43.1-43.1L203.9,163.5z"/> <path class="st3" d="M116.9,52.3C103.6,39,83,36.1,66.6,45.2C46.1,33.9,20.4,41.3,9.1,61.7c-9.1,16.5-6.3,37,7.1,50.4l34.3,34.3 l0.1,0.1c8.8,8.7,23,8.7,31.9,0l0.1-0.1l8.9-8.9l-6.2-6.2c-3.3-3.3-3.3-8.5,0-11.8s8.5-3.3,11.8,0l6.2,6.2l13.6-13.6 C133.4,95.6,133.4,68.9,116.9,52.3z"/> <path class="st4" d="M106.4,62.8c-10.7-10.7-28.1-10.7-38.8,0c0,0,0,0,0,0c-0.6,0.6-1.5,0.6-2.1,0c-10.7-10.7-28.1-10.7-38.8,0 s-10.7,28.1,0,38.8L61,135.9L61,136c3.1,3,8,3,11,0l0.1-0.1l10.8-10.8c0.1-4.4,3.7-7.9,8.1-8.1l15.5-15.5 C117.2,90.9,117.2,73.5,106.4,62.8C106.4,62.8,106.4,62.8,106.4,62.8z"/> <path class="st1" d="M34.4,161.1h-1.8v-1.8c0-1.4-1.1-2.5-2.5-2.5s-2.5,1.1-2.5,2.5v1.8h-1.8c-1.4,0-2.5,1.1-2.5,2.5 s1.1,2.5,2.5,2.5h1.8v1.8c0,1.4,1.1,2.5,2.5,2.5s2.5-1.1,2.5-2.5v-1.8h1.8c1.4,0,2.5-1.1,2.5-2.5S35.8,161.1,34.4,161.1L34.4,161.1 z"/> <path class="st4" d="M107.5,25.5c0-0.2-0.1-0.3-0.1-0.5c-0.1-0.2-0.1-0.3-0.2-0.4c-0.1-0.1-0.2-0.3-0.3-0.4c-1-0.9-2.5-0.9-3.5,0 c-0.1,0.1-0.2,0.2-0.3,0.4c-0.1,0.1-0.2,0.3-0.2,0.4c-0.1,0.2-0.1,0.3-0.1,0.5c-0.1,0.3-0.1,0.7,0,1c0,0.2,0.1,0.3,0.1,0.5 c0.1,0.1,0.1,0.3,0.2,0.4c0.1,0.1,0.2,0.3,0.3,0.4c1,1,2.5,1,3.5,0c0,0,0,0,0,0c0.1-0.1,0.2-0.2,0.3-0.4c0.1-0.1,0.2-0.3,0.2-0.4 c0.1-0.1,0.1-0.3,0.1-0.5C107.6,26.2,107.6,25.8,107.5,25.5z"/> <path class="st5" d="M55.7,202.3c-0.1-0.3-0.2-0.6-0.4-0.9c-0.1-0.1-0.2-0.3-0.3-0.4c-1-0.9-2.5-0.9-3.5,0 c-0.1,0.1-0.2,0.2-0.3,0.4c-0.1,0.1-0.2,0.3-0.2,0.4c-0.1,0.2-0.1,0.3-0.1,0.5c-0.1,0.3-0.1,0.7,0,1c0,0.2,0.1,0.3,0.1,0.5 c0.1,0.1,0.1,0.3,0.2,0.4c0.1,0.1,0.2,0.3,0.3,0.4c1,1,2.5,1,3.5,0c0,0,0,0,0,0c0.1-0.1,0.2-0.2,0.3-0.4c0.1-0.1,0.2-0.3,0.2-0.4 c0.1-0.1,0.1-0.3,0.1-0.5C55.8,203,55.8,202.7,55.7,202.3z"/> <path class="st6" d="M90.3,8.2c-4.1-0.8-7.2-4-8-8c0-0.1-0.1-0.2-0.2-0.2c-0.1,0-0.1,0.1-0.2,0.2c-0.8,4.1-4,7.2-8,8 c-0.1,0-0.2,0.1-0.2,0.2c0,0.1,0.1,0.1,0.2,0.2c4.1,0.8,7.2,4,8,8c0,0.1,0.1,0.2,0.2,0.2c0.1,0,0.1-0.1,0.2-0.2c0.8-4.1,4-7.2,8-8 c0.1,0,0.2-0.1,0.2-0.2C90.4,8.2,90.4,8.2,90.3,8.2z"/> <path class="st4" d="M80.2,176c-4.1-0.8-7.2-4-8-8c0-0.1-0.1-0.2-0.2-0.2c-0.1,0-0.1,0.1-0.2,0.2c-0.8,4.1-4,7.2-8,8 c-0.1,0-0.2,0.1-0.2,0.2c0,0.1,0.1,0.1,0.2,0.2c4.1,0.8,7.2,4,8,8c0,0.1,0.1,0.2,0.2,0.2c0.1,0,0.1-0.1,0.2-0.2c0.8-4.1,4-7.2,8-8 c0.1,0,0.2-0.1,0.2-0.2C80.4,176.1,80.3,176,80.2,176z"/> <path class="st7" d="M236.3,181.6l-8.8-8.8c-2-2-5.3-2-7.3,0c0,0,0,0,0,0l-49.6,49.6c-2,2-2,5.3,0,7.3c0,0,0,0,0,0l8.8,8.8 c1,1,2.6,1,3.5,0l53.4-53.4C237.3,184.2,237.3,182.6,236.3,181.6C236.4,181.6,236.4,181.6,236.3,181.6z M181.1,233.3l-7-7 c-0.1-0.1-0.1-0.2,0-0.3l49.6-49.6c0.1-0.1,0.2-0.1,0.3,0l7,7L181.1,233.3z"/> <path class="st7" d="M131.8,174.4l-6.4-6.4c-1-1-2.6-1-3.5,0c-1,1-1,2.5,0,3.5l6.4,6.4c1,1,2.6,1,3.5,0 C132.8,177,132.8,175.4,131.8,174.4C131.9,174.4,131.8,174.4,131.8,174.4z"/> <path class="st7" d="M130.3,149.2l-7.1-7.1c-1-1-2.6-1-3.5,0c-1,1-1,2.5,0,3.5l7.1,7.1c1,1,2.6,0.9,3.5-0.1 C131.2,151.7,131.2,150.2,130.3,149.2L130.3,149.2z"/> <path class="st7" d="M142.1,137.4l-7.1-7.1c-1-1-2.6-1-3.5,0c-1,1-1,2.5,0,3.5l7.1,7.1c1,1,2.6,1,3.5,0 C143.1,140,143.1,138.4,142.1,137.4C142.1,137.4,142.1,137.4,142.1,137.4z"/> <path class="st7" d="M153.9,125.6l-7.1-7.1c-1-1-2.6-0.9-3.5,0.1c-0.9,1-0.9,2.5,0,3.5l7.1,7.1c1,1,2.6,0.9,3.5-0.1 C154.9,128.1,154.9,126.5,153.9,125.6z"/> <path class="st7" d="M252.5,188.5l-8-8c-2.9-2.9-7.6-2.9-10.5,0l-54.8,54.8c-2.9,2.9-2.9,7.6,0,10.5c0,0,0,0,0,0l8,8 c2.9,2.9,7.6,2.9,10.5,0l54.8-54.8C255.4,196.1,255.4,191.4,252.5,188.5C252.5,188.5,252.5,188.5,252.5,188.5L252.5,188.5z M249,195.5l-54.8,54.8c-1,1-2.5,1-3.5,0l-8-8c-1-1-1-2.5,0-3.5c0,0,0,0,0,0l54.8-54.8c1-1,2.5-1,3.5,0l8,8 C249.9,193,249.9,194.5,249,195.5L249,195.5z"/> <path class="st7" d="M220.3,176.3l-14.6-14.6c-3.4-3.5-6.1-7.5-8.1-12c-0.6-1.2-1.1-2.3-1.7-3.3c-1.8-3.5-4.2-6.8-7-9.6l-30.2-30.2 c-4.2-4.2-11.1-4.2-15.4,0c-2.3,2.3-3.4,5.5-3.1,8.7c-0.3,0-0.7,0-1,0c-6,0-10.9,4.9-10.9,10.9c0,0,0,0,0,0c0,0.3,0,0.7,0,1 c-5.5-0.5-10.5,3.1-11.6,8.5l-17.9-17.9c-4.3-4.2-11.1-4.1-15.3,0.1c-4.1,4.2-4.1,11,0,15.2l31.7,31.8c-6.4,1.1-10.8,7.2-9.7,13.6 c0.4,2.4,1.6,4.6,3.3,6.4l8.2,8.2c6.5,6.5,14.8,10.9,23.9,12.5c1.8,0.4,3.6,0.8,5.4,1c5.6,0.9,12,1.8,19.7,8.9l7.6,7.4 c1,1,2.5,0.9,3.5,0l43.1-43.1C221.2,178.9,221.2,177.3,220.3,176.3C220.3,176.3,220.3,176.3,220.3,176.3z M175.4,217.6l-5.9-5.7 c-8.9-8.2-16.4-9.3-22.4-10.2c-1.7-0.2-3.3-0.5-5-0.9c-0.1,0-0.1,0-0.2,0c-8.1-1.4-15.5-5.3-21.3-11.2l-8.2-8.2 c-2.7-2.7-2.7-7,0-9.6c2.7-2.7,7-2.7,9.6,0c1,1,2.6,1,3.5,0c1-1,1-2.5,0-3.5l-38.5-38.6l0,0c-2.3-2.3-2.3-6,0-8.3 c2.3-2.3,6-2.3,8.3,0l24.3,24.3c1,1,2.6,1,3.5,0c1-1,1-2.6,0-3.5c0,0,0,0,0,0c-2.3-2.3-2.3-6,0-8.3c2.3-2.3,6-2.3,8.3,0l0,0 c1,1,2.6,1,3.5,0c1-1,1-2.5,0-3.5c-2.3-2.3-2.3-6,0-8.3c2.3-2.3,6-2.3,8.3,0c1,1,2.6,1,3.5,0c1-1,1-2.5,0-3.5c-2.3-2.3-2.3-6,0-8.3 c2.3-2.3,6-2.3,8.3,0l0,0l30.2,30.2c2.5,2.5,4.5,5.3,6.1,8.4c0,0,0,0.1,0.1,0.1c0.5,0.9,1,2,1.6,3.1c2.2,4.9,5.3,9.4,9.1,13.3 l12.8,12.8L175.4,217.6z"/> <path class="st7" d="M118.7,50.6c-13.8-13.7-34.8-17-52.1-8.2c-22-11.3-49-2.7-60.3,19.3c-8.9,17.3-5.6,38.4,8.1,52.1l34.3,34.3 l0.1,0.1c9.8,9.7,25.6,9.7,35.4,0l9-9c1-1,1-2.6,0-3.5l-6.2-6.2c-2.3-2.3-2.3-6,0-8.3c2.3-2.3,6-2.3,8.3,0l6.2,6.2c1,1,2.6,1,3.5,0 l13.6-13.6C136.1,96.4,136.1,68.1,118.7,50.6z M115.1,110.3l-11.9,11.9l-4.4-4.4c-4.2-4.2-11.1-4.2-15.3,0 c-4.2,4.2-4.2,11.1,0,15.3l0,0l4.4,4.4l-7.1,7.1l-0.1,0.1c-7.9,7.8-20.5,7.8-28.3,0l-0.1-0.1L18,110.3C2.5,94.8,2.5,69.6,18,54.1 c12.5-12.5,31.8-15.2,47.3-6.7c0.8,0.4,1.7,0.4,2.4,0c19.2-10.6,43.4-3.7,54,15.5C130.4,78.5,127.7,97.8,115.1,110.3z"/> <path class="st7" d="M108.2,61c-11.4-11.4-29.9-11.7-41.7-0.7c-12.1-11.3-31-10.7-42.3,1.4c-11,11.8-10.7,30.2,0.7,41.6l34.4,34.4 c1.9,1.9,4.5,3,7.3,3c2.8,0,5.4-1.1,7.4-3L84.6,127c0.4-0.4,0.7-1.1,0.7-1.7c0.1-3.1,2.6-5.5,5.6-5.6c0.6,0,1.2-0.3,1.7-0.7 l15.5-15.5C119.9,91.7,119.9,72.7,108.2,61z M104.7,99.9l-14.9,14.9c-4.9,0.6-8.7,4.5-9.4,9.4l-10.2,10.2c-2.1,2.1-5.5,2-7.6,0 L28.4,99.9c-9.7-9.7-9.7-25.5,0-35.3s25.5-9.7,35.3,0c1.6,1.6,4.1,1.6,5.7,0c0,0,0,0,0,0c9.8-9.7,25.6-9.6,35.3,0.2 C114.3,74.5,114.3,90.1,104.7,99.9z"/> </g> </svg>